HIERARCHY
ROOT joint_Root
{
	OFFSET 0.0 0.0 0.0
	CHANNELS 6 Xposition Yposition Zposition Zrotation Xrotation Yrotation 
	JOINT Hips
	{
		OFFSET -17.1583 93.1646 452.98
		CHANNELS 6 Xposition Yposition Zposition Zrotation Xrotation Yrotation 
		JOINT Spine
		{
			OFFSET 15.7357 0.0 0.0
			CHANNELS 6 Xposition Yposition Zposition Zrotation Xrotation Yrotation 
			JOINT Chest
			{
				OFFSET 8.98455 -0.406207 0.0
				CHANNELS 6 Xposition Yposition Zposition Zrotation Xrotation Yrotation 
				JOINT Neck
				{
					OFFSET 16.3773 0.0 0.0
					CHANNELS 6 Xposition Yposition Zposition Zrotation Xrotation Yrotation 
					JOINT Head
					{
						OFFSET 6.45672 0.0 0.0
						CHANNELS 6 Xposition Yposition Zposition Zrotation Xrotation Yrotation 
						End Site
						{
							OFFSET 0.0 0.0 0.0
						}
					}
				}
				JOINT Shoulder_L
				{
					OFFSET 12.9942 -0.242716 4.98039
					CHANNELS 6 Xposition Yposition Zposition Zrotation Xrotation Yrotation 
					JOINT UpperArm_L
					{
						OFFSET 5.34809 0.0 0.0
						CHANNELS 6 Xposition Yposition Zposition Zrotation Xrotation Yrotation 
						JOINT LowerArm_L
						{
							OFFSET 24.3286 1.87007e-05 0.0
							CHANNELS 6 Xposition Yposition Zposition Zrotation Xrotation Yrotation 
							JOINT Hand_L
							{
								OFFSET 22.2916 0.0 0.0
								CHANNELS 6 Xposition Yposition Zposition Zrotation Xrotation Yrotation 
								End Site
								{
									OFFSET 0.0 0.0 0.0
								}
							}
						}
					}
				}
				JOINT Shoulder_R
				{
					OFFSET 12.9945 -0.242716 -4.98039
					CHANNELS 6 Xposition Yposition Zposition Zrotation Xrotation Yrotation 
					JOINT UpperArm_R
					{
						OFFSET -5.34813 0.0 0.0
						CHANNELS 6 Xposition Yposition Zposition Zrotation Xrotation Yrotation 
						JOINT LowerArm_R
						{
							OFFSET -24.3289 0.000322201 0.0
							CHANNELS 6 Xposition Yposition Zposition Zrotation Xrotation Yrotation 
							JOINT Hand_R
							{
								OFFSET -22.2915 -0.000108084 0.0
								CHANNELS 6 Xposition Yposition Zposition Zrotation Xrotation Yrotation 
								End Site
								{
									OFFSET 0.0 0.0 0.0
								}
							}
						}
					}
				}
			}
		}
		JOINT UpperLeg_L
		{
			OFFSET -2.19248 -6.46944 0.0
			CHANNELS 6 Xposition Yposition Zposition Zrotation Xrotation Yrotation 
			JOINT LowerLeg_L
			{
				OFFSET 39.0811 0.0 -1.23785e-05
				CHANNELS 6 Xposition Yposition Zposition Zrotation Xrotation Yrotation 
				JOINT Foot_L
				{
					OFFSET 40.9854 0.0 -1.26872e-05
					CHANNELS 6 Xposition Yposition Zposition Zrotation Xrotation Yrotation 
					JOINT Toes_L
					{
						OFFSET 11.7543 0.0 0.0
						CHANNELS 6 Xposition Yposition Zposition Zrotation Xrotation Yrotation 
						End Site
						{
							OFFSET 0.0 0.0 0.0
						}
					}
				}
			}
		}
		JOINT UpperLeg_R
		{
			OFFSET -2.19251 6.46944 0.0
			CHANNELS 6 Xposition Yposition Zposition Zrotation Xrotation Yrotation 
			JOINT LowerLeg_R
			{
				OFFSET -39.0811 -0.00228153 -0.0401928
				CHANNELS 6 Xposition Yposition Zposition Zrotation Xrotation Yrotation 
				JOINT Foot_R
				{
					OFFSET -40.9854 0.0 0.0
					CHANNELS 6 Xposition Yposition Zposition Zrotation Xrotation Yrotation 
					JOINT Toes_R
					{
						OFFSET -11.7543 0.0 0.0
						CHANNELS 6 Xposition Yposition Zposition Zrotation Xrotation Yrotation 
						End Site
						{
							OFFSET 0.0 0.0 0.0
						}
					}
				}
			}
		}
	}
}
MOTION
Frames:	6
Frame Time:	0.0333333
0.000000 0.000000 0.000000 0.000000 0.000000 -0.000000 -2.645660 93.028500 3.386500 86.960100 -2.578390 -2.455330 15.735700 0.000005 -0.000001 -82.555400 87.066800 83.970000 8.984550 -0.406207 -0.000000 -13.570100 -1.016540 2.724090 16.377300 -0.000001 -0.000001 -6.623250 2.073320 2.242250 6.456720 -0.000001 -0.000000 1.659280 4.483110 4.346410 12.994200 -0.242716 4.980390 -88.104400 -3.674370 -62.686500 5.348090 -0.000007 -0.000001 -69.881800 -62.993300 -118.094000 24.328600 0.000019 0.000005 0.000050 -5.109510 0.000001 22.291600 -0.000001 0.000005 59.865800 4.066680 23.271800 12.994500 -0.242716 -4.980390 92.356500 -4.558860 -62.627400 -5.348130 -0.000001 -0.000004 -63.799600 -62.316100 -114.978000 -24.328900 0.000322 -0.000009 -0.001063 -21.041500 -0.000117 -22.291500 -0.000108 -0.000004 51.982300 5.389220 -2.590660 -2.192480 -6.469440 -0.000000 -170.532000 -6.074040 1.751780 39.081100 -0.000007 -0.000012 -0.000126 0.000744 9.591530 40.985400 -0.000006 -0.000013 -5.189970 12.524600 -68.140200 11.754300 -0.000000 0.000003 -0.000869 0.181157 -9.228300 -2.192510 6.469440 -0.000001 179.409000 7.196640 -177.698000 -39.081100 -0.002282 -0.040193 -0.002028 0.041351 7.401100 -40.985400 0.000008 0.000006 -8.389930 7.653680 -66.103100 -11.754300 -0.000006 -0.000006 -0.009774 0.269608 -5.620390
0.000000 0.000000 0.000000 0.000000 0.000000 -0.000000 -2.650920 93.027400 3.353090 86.947500 -2.531960 -2.443100 15.735700 0.000005 -0.000001 -82.621800 87.095100 84.058500 8.984550 -0.406207 -0.000000 -13.514600 -1.006090 2.770130 16.377300 -0.000001 -0.000001 -6.397950 2.021980 2.264890 6.456720 -0.000001 -0.000000 1.294460 4.364880 4.093100 12.994200 -0.242716 4.980390 -88.154400 -3.559680 -62.571200 5.348090 -0.000007 -0.000001 -70.069100 -62.842600 -118.107000 24.328600 0.000019 0.000005 0.000054 -5.242150 0.000001 22.291600 -0.000001 0.000005 59.685500 4.080780 23.067800 12.994500 -0.242716 -4.980390 92.331200 -4.489040 -62.519500 -5.348130 -0.000001 -0.000004 -64.109300 -62.206400 -115.553000 -24.328900 0.000322 -0.000009 -0.001061 -20.763100 -0.000116 -22.291500 -0.000108 -0.000004 52.449500 5.378360 -2.246630 -2.192480 -6.469440 -0.000000 -170.523000 -6.054210 1.653820 39.081100 -0.000007 -0.000012 0.000158 -0.000926 9.737710 40.985400 -0.000006 -0.000013 -5.116560 12.524500 -68.217100 11.754300 -0.000000 0.000003 -0.001004 0.183089 -9.149800 -2.192510 6.469440 -0.000001 179.441000 7.205290 -177.699000 -39.081100 -0.002282 -0.040193 -0.002110 0.042020 7.394010 -40.985400 0.000008 0.000006 -8.308320 7.602590 -66.089400 -11.754300 -0.000006 -0.000006 -0.009737 0.269327 -5.631890
0.000000 0.000000 0.000000 0.000000 0.000000 -0.000000 -2.637410 93.034500 3.321710 86.949900 -2.534240 -2.425040 15.735700 0.000005 -0.000001 -82.949200 87.126900 84.418800 8.984550 -0.406207 -0.000000 -13.455700 -0.971072 2.840750 16.377300 -0.000001 -0.000001 -6.120860 1.916330 2.277520 6.456720 -0.000001 -0.000000 0.833054 4.186100 3.713490 12.994200 -0.242716 4.980390 -88.218800 -3.423330 -62.490000 5.348090 -0.000007 -0.000001 -69.939000 -62.793500 -117.676000 24.328600 0.000019 0.000005 0.000049 -5.109700 0.000001 22.291600 -0.000001 0.000005 59.389800 4.083270 23.031800 12.994500 -0.242716 -4.980390 92.295600 -4.390820 -62.363100 -5.348130 -0.000001 -0.000004 -64.640200 -61.998100 -116.402000 -24.328900 0.000322 -0.000009 -0.001061 -20.649400 -0.000115 -22.291500 -0.000108 -0.000004 52.981500 5.373110 -2.083930 -2.192480 -6.469440 -0.000000 -170.533000 -6.114090 1.689670 39.081100 -0.000007 -0.000012 0.000763 -0.004477 9.678950 40.985400 -0.000006 -0.000013 -5.032530 12.567000 -68.230300 11.754300 -0.000000 0.000003 -0.001076 0.184107 -9.108430 -2.192510 6.469440 -0.000001 179.421000 7.241230 -177.668000 -39.081100 -0.002282 -0.040193 -0.002016 0.041681 7.327080 -40.985400 0.000008 0.000006 -8.422850 7.639370 -66.045300 -11.754300 -0.000006 -0.000006 -0.009977 0.271132 -5.558070
0.000000 0.000000 0.000000 0.000000 0.000000 -0.000000 -2.637550 93.021500 3.321810 86.920100 -2.569590 -2.376760 15.735700 0.000005 -0.000001 -83.202200 87.153700 84.695800 8.984550 -0.406207 -0.000000 -13.405500 -0.943628 2.892630 16.377300 -0.000001 -0.000001 -5.963200 1.803990 2.286440 6.456720 -0.000001 -0.000000 0.614740 4.015590 3.497590 12.994200 -0.242716 4.980390 -88.281700 -3.298890 -62.466000 5.348090 -0.000007 -0.000001 -69.639500 -62.832600 -117.142000 24.328600 0.000019 0.000005 0.000049 -5.068990 0.000001 22.291600 -0.000001 0.000005 59.428100 4.081530 23.056700 12.994500 -0.242716 -4.980390 92.283000 -4.347880 -62.261200 -5.348130 -0.000001 -0.000004 -64.956800 -61.812600 -116.929000 -24.328900 0.000322 -0.000009 -0.001063 -20.817900 -0.000116 -22.291500 -0.000108 -0.000004 53.237600 5.373320 -2.089630 -2.192480 -6.469440 -0.000000 -170.517000 -6.056310 1.633540 39.081100 -0.000007 -0.000012 0.001829 -0.010473 9.910700 40.985400 -0.000006 -0.000013 -4.956080 12.497000 -68.360500 11.754300 -0.000000 0.000003 -0.000902 0.181638 -9.208760 -2.192510 6.469440 -0.000001 179.442000 7.258050 -177.629000 -39.081100 -0.002282 -0.040193 -0.002204 0.043027 7.345920 -40.985400 0.000008 0.000006 -8.431170 7.670650 -66.021300 -11.754300 -0.000006 -0.000006 -0.009601 0.268298 -5.673940
0.000000 0.000000 0.000000 0.000000 0.000000 -0.000000 -2.635070 93.022700 3.324560 86.923800 -2.652660 -2.354980 15.735700 0.000005 -0.000001 -83.728900 87.163900 85.222000 8.984550 -0.406207 -0.000000 -13.391800 -0.889611 2.898140 16.377300 -0.000001 -0.000001 -5.830570 1.760310 2.292780 6.456720 -0.000001 -0.000000 0.490220 3.915160 3.461200 12.994200 -0.242716 4.980390 -88.366100 -3.135720 -62.459600 5.348090 -0.000007 -0.000001 -69.495800 -62.837500 -116.854000 24.328600 0.000019 0.000005 0.000045 -5.102530 0.000001 22.291600 -0.000001 0.000005 59.503000 4.073680 23.170600 12.994500 -0.242716 -4.980390 92.257500 -4.287200 -62.195500 -5.348130 -0.000001 -0.000004 -65.277500 -61.616100 -117.416000 -24.328900 0.000322 -0.000009 -0.001062 -20.797600 -0.000116 -22.291500 -0.000108 -0.000004 52.836500 5.371650 -2.037580 -2.192480 -6.469440 -0.000000 -170.522000 -6.096070 1.714640 39.081100 -0.000007 -0.000012 0.002102 -0.012117 9.846000 40.985400 -0.000006 -0.000013 -4.991290 12.480900 -68.331500 11.754300 -0.000000 0.000003 -0.000844 0.180799 -9.242870 -2.192510 6.469440 -0.000001 179.428000 7.172330 -177.601000 -39.081100 -0.002282 -0.040193 -0.002241 0.043393 7.333490 -40.985400 0.000008 0.000006 -8.395380 7.680790 -66.019400 -11.754300 -0.000006 -0.000006 -0.009565 0.268024 -5.685160
0.000000 0.000000 0.000000 0.000000 0.000000 -0.000000 -2.646640 93.005400 3.366050 86.899100 -2.784010 -2.289200 15.735700 0.000005 -0.000001 -84.252100 87.190200 85.753100 8.984550 -0.406207 -0.000000 -13.345400 -0.834169 2.920820 16.377300 -0.000001 -0.000001 -5.724300 1.747560 2.334560 6.456720 -0.000001 -0.000000 0.341574 3.871710 3.416450 12.994200 -0.242716 4.980390 -88.436300 -2.988530 -62.362800 5.348090 -0.000007 -0.000001 -69.736200 -62.760800 -116.910000 24.328600 0.000019 0.000005 0.000049 -5.248050 0.000001 22.291600 -0.000001 0.000005 59.476300 4.068930 23.239100 12.994500 -0.242716 -4.980390 92.236000 -4.238270 -62.151600 -5.348130 -0.000001 -0.000004 -65.255000 -61.493700 -117.514000 -24.328900 0.000322 -0.000009 -0.001063 -20.894900 -0.000116 -22.291500 -0.000108 -0.000004 52.708200 5.375660 -2.162580 -2.192480 -6.469440 -0.000000 -170.511000 -6.100630 1.780950 39.081100 -0.000007 -0.000012 0.003601 -0.020498 9.966590 40.985400 -0.000006 -0.000013 -4.837310 12.351600 -68.471400 11.754300 -0.000000 0.000003 -0.000961 0.182480 -9.174540 -2.192510 6.469440 -0.000001 179.440000 7.125880 -177.560000 -39.081100 -0.002282 -0.040193 -0.002471 0.044639 7.420860 -40.985400 0.000008 0.000006 -8.351500 7.750920 -66.080600 -11.754300 -0.000006 -0.000006 -0.009610 0.268370 -5.671000
